<?xml version="1.0" encoding="utf-8"?>
<!-- Generator: Adobe Illustrator 13.0.2, SVG Export Plug-In . SVG Version: 6.00 Build 14948)  -->
<!DOCTYPE svg PUBLIC "-//W3C//DTD SVG 1.1//EN" "http://www.w3.org/Graphics/SVG/1.1/DTD/svg11.dtd">
<svg version="1.1" id="Ebene_1" xmlns="http://www.w3.org/2000/svg" xmlns:xlink="http://www.w3.org/1999/xlink" x="0px" y="0px"
	 width="220px" height="200px" viewBox="0 0 220 200" enable-background="new 0 0 220 200" xml:space="preserve">
<polygon fill="#FFD70F" points="201.51,48.685 201.51,10.92 20.542,10.92 20.542,48.685 6.383,48.685 6.383,126.065 
	215.396,126.065 215.396,48.685 "/>
<path fill="#009939" d="M2.605,127.709V44.906h14.16V7.142h188.522v37.764h13.885v82.803H2.605L2.605,127.709z M8.51,124.736
	l203.994,0.179l-0.884-72.453h-13.89V14.696H24.317v37.766h-14.16l-1.381,69.877L8.51,124.736z"/>
<polygon fill="#FFFFFF" points="29.972,6.829 29.972,23.848 36.422,32.574 55.382,26.136 55.305,0.438 "/>
<polygon fill="#009B3A" stroke="#009B3A" points="33.899,93.641 76.686,103.309 187.977,92.94 188.003,126.69 33.813,126.69 "/>
<polygon fill="#009B3A" stroke="#009B3A" points="161.239,69.688 149.609,64.863 125.424,48.352 96.529,57.145 33.871,52.401 
	33.871,74.63 73.602,86.029 187.13,75.945 187.13,52.758 "/>
<polygon fill="#FFFFFF" points="16.749,37.652 9.587,45.228 9.587,65.542 19.699,69.846 19.699,58.113 24.002,61.485 24.002,53.469 
	33.871,53.467 52.137,80.971 58.873,82.808 68.02,120.713 72.766,122.681 76.123,136.549 102.592,136.549 89.863,83.941 
	125.821,60.593 145.377,77.117 150.128,75.256 151.931,80.169 187.13,77.01 184.075,69.212 164.271,64.369 128.412,35.152 
	89.34,49.973 77.334,34.173 95.421,15.785 112.66,15.785 119.461,21.515 119.461,15.785 133.01,15.785 129.737,8.181 90.051,1.897 
	53.414,25.361 "/>
</svg>
